<svg width="32" height="32" viewBox="0 0 32 32" fill="none" xmlns="http://www.w3.org/2000/svg">
<path fill-rule="evenodd" clip-rule="evenodd" d="M14 2C7.37261 2 2 7.37261 2 14C2 20.6274 7.37261 26 14 26C16.9537 26 19.6581 24.9328 21.7488 23.163L27.2929 28.7071C27.6834 29.0976 28.3166 29.0976 28.7071 28.7071C29.0976 28.3166 29.0976 27.6834 28.7071 27.2929L23.163 21.7488C24.9328 19.6581 26 16.9537 26 14C26 7.37261 20.6274 2 14 2ZM4 14C4 8.47718 8.47718 4 14 4C19.5228 4 24 8.47718 24 14C24 19.5228 19.5228 24 14 24C8.47718 24 4 19.5228 4 14Z" fill="#454444"/>
</svg>
